P2
# cross.pgm
3
3
1
0 1 0
1 1 1 # cross.pgm com espaço
0 1 0 # cross.pgm
